<svg xmlns="http://www.w3.org/2000/svg" width="100" height="100" fill="none"><path fill="#F2CD66" d="M31.25 37.5s0 .084.083.167c0 .083.084.083.084.167l.083.25L42.583 27l-.25-.083c-.083 0-.083-.083-.166-.083-.084 0-.084 0-.167-.084l-.084-.083-10.75 10.667.084.166zM39 26.084l-8.334 8.333v1l9.25-9.333H39zm-3.917.833c-.416.167-.833.5-1.25.833l-1.5 1.5v.084c-.25.416-.5.75-.75 1.166l-.666 1.167 5.25-5.25-1.084.5zm-.75 14.417c.084.083.25.166.334.166l.083-.166-.083.166.083.084L46 30.334l.083-.084-.083-.083c0-.083-.083-.083-.083-.167l-.084-.083-.083-.25-11.5 11.5.083.167zm-1.75-1.584.167.167.167.167L44.5 28.5l.083-.083-.083-.083c-.083-.084-.167-.25-.333-.334l-.084-.083-11.75 11.667.25.166zm6.584-.083L36.5 42.334l.333.083c.084 0 .167 0 .167.083h.25l.75-.75c.333-.666.75-1.416 1.167-2.083zM46.833 33l.167-.167.083-.083v-.25c0-.083 0-.083-.083-.167L46.916 32l-2.25 2.167A17.895 17.895 0 0 1 46.834 33z"/><path fill="#FFD5D4" d="M43.25 52.167h-6.667c.667 4 2.584 7.5 5.334 10.167l5.416-8.25-4.083-1.917zm-4.667-5.583L47 32.917c-.083 0-.083.083-.167.083-.75.334-1.5.75-2.166 1.167-2.167 1.417-4.084 3.25-5.5 5.5A17.895 17.895 0 0 0 38 41.834a17.34 17.34 0 0 0-1.5 5h1.833l.25-.25zm25.75 11.833a2.596 2.596 0 0 1 2.584-2.584h4.166c.75-2 1.25-4.25 1.25-6.5 0-5.916-2.833-11.083-7.166-14.333l-7.75 10 4.666 1.833h4.584c1.5 0 2.666 1.167 2.666 2.667 0 1.5-1.166 2.667-2.666 2.667h-3.584l-12.666 13.75v.916c1.25.25 2.583.417 3.916.417 5.5 0 10.334-2.417 13.667-6.333h-1.084c-1.416 0-2.583-1.084-2.583-2.5z"/><path fill="#F2DECE" d="M33.333 47.667c-1 0-1.833.834-1.833 1.834s.833 1.833 1.833 1.833H41.5l-1-.5c-.917-.167-1.75-.75-2.167-1.583a2.832 2.832 0 0 1-.25-1.667h-4.75v.083zM68.5 49.5c0-1-.833-1.833-1.833-1.833H63.75c.25.25.5.667.667 1a2.611 2.611 0 0 1-.5 2.667h2.75c1 0 1.833-.834 1.833-1.834z"/><path fill="#248FB2" d="M41.5 51.334h-8.167c-1 0-1.833-.833-1.833-1.833s.833-1.834 1.833-1.834h4.75c.084-.25.167-.583.334-.833h-5.084a2.633 2.633 0 0 0-2.666 2.667c0 1.5 1.166 2.666 2.666 2.666h9.917l-1.75-.833zm22.167-3.667h3c1 0 1.833.834 1.833 1.834s-.833 1.833-1.833 1.833h-2.834c-.083.083-.083.167-.166.167l-.584.666h3.584c1.5 0 2.666-1.166 2.666-2.666s-1.166-2.667-2.666-2.667h-4.584.084c.583.083 1.083.417 1.5.833zM49.583 66.833v6.417h-5.916l-.75.833h14.75c.833 0 2.833.25 2.833 2.167 0 .25.166.417.416.417.25 0 .417-.167.417-.417 0-1.833-1.416-3-3.666-3h-7.25V66l-.834.833z"/><path fill="#248FB2" d="M26.75 73.584c0 .25.167.416.417.416.25 0 .416-.166.416-.416V72h.584C29 72 31 72.25 31 74.167c0 .25.167.416.417.416.25 0 .416-.166.416-.416 0-1.834-1.416-3-3.666-3h-.584v-10.25h5.5a2.596 2.596 0 0 0 2.584-2.584c0-1.416-1.167-2.5-2.584-2.5h-9.166c-.667 0-1.084-.25-1.167-.75L22.5 53.5c-.5-4.083-1.667-14.666-1.833-15.666-.25-2.334-2.5-3.834-2.917-4.167-1.167-.75-2.75-.334-3.5.833a2.496 2.496 0 0 0 .833 3.5c.25.167.5.417.584.5.25 2.084 2 17.084 2 17.084v.083c.333 1.75 2 5.083 6.25 5.083h2.833V71h-.583c-2.25 0-3.667 1.167-3.667 3 0 .25.167.417.417.417.25 0 .416-.167.416-.417 0-2 2-2.166 2.834-2.166h.583v1.75zM18.5 55.75v-.083s-1.833-15.5-2-17.167l-.083-.166c-.167-.25-.584-.667-.917-.834-.833-.5-1.083-1.583-.583-2.416.333-.5.916-.834 1.5-.834.333 0 .583.084.916.25.417.25 2.334 1.5 2.584 3.5.083 1 1.333 11.5 1.833 15.667l.167 1.583c.083.417.5 1.417 2 1.417h9.166c1 0 1.75.75 1.75 1.75s-.75 1.75-1.75 1.75h-9.166c-3.75-.084-5.167-2.917-5.417-4.417z"/><path fill="#CCF2FF" d="M33.083 60.083c1 0 1.75-.75 1.75-1.75s-.75-1.666-1.75-1.666h-9.166c-1.5 0-1.917-1-2-1.417l-.167-1.583C21.25 49.583 20.083 39 19.916 38c-.25-2-2.166-3.25-2.583-3.5-.25-.167-.583-.25-.916-.25-.584 0-1.167.25-1.5.833-.5.834-.25 1.917.583 2.417.333.167.75.583.916.833l.084.167c.166 1.667 2 17.167 2 17.167v.083c.25 1.5 1.75 4.417 5.416 4.417h9.167v-.084zM84.5 37.417c.833-.5 1.083-1.584.583-2.417-.5-.833-1.583-1.083-2.416-.583-.417.25-2.334 1.5-2.584 3.5-.083 1-1.333 11.5-1.833 15.666l-.167 1.5c-.083.5-.5 1.5-2 1.5h-9.166c-1 0-1.75.75-1.75 1.75s.75 1.75 1.75 1.75h9.166c3.75 0 5.167-2.916 5.417-4.416v-.084s1.833-15.5 2-17.166l.083-.167c.167-.25.584-.583.917-.833z"/><path fill="#248FB2" d="M85.75 34.583c-.75-1.166-2.333-1.583-3.5-.833-.417.25-2.667 1.75-2.917 4.166-.166 1-1.416 11.5-1.833 15.584l-.167 1.5c-.166.5-.5.833-1.166.833h-9.25a2.596 2.596 0 0 0-2.584 2.584A2.596 2.596 0 0 0 66.917 61h5.5v10.25h-.584c-2.25 0-3.666 1.166-3.666 3 0 .25.166.416.416.416.25 0 .417-.166.417-.416 0-2 2-2.167 2.833-2.167h.584v1.584c0 .25.166.416.416.416.25 0 .417-.166.417-.416v-1.584h.583c.834 0 2.834.25 2.834 2.167 0 .25.166.416.416.416.25 0 .417-.166.417-.416 0-1.834-1.417-3-3.667-3h-.583V60.916h2.833c4.25 0 6-3.333 6.25-5.083v-.083s1.75-15 2-17.084c.084-.083.334-.333.584-.5 1.166-.833 1.583-2.416.833-3.583zm-2.167 3.667-.083.166c-.167 1.667-2 17.167-2 17.167v.084c-.25 1.5-1.75 4.416-5.417 4.416h-9.166c-1 0-1.75-.75-1.75-1.75s.75-1.75 1.75-1.75h9.166c1.5 0 1.917-1 2-1.5l.167-1.5c.5-4.083 1.667-14.666 1.833-15.666.25-2 2.167-3.25 2.584-3.5.833-.5 1.833-.25 2.416.583.5.833.25 1.916-.583 2.416-.333.25-.75.584-.917.834z"/><path fill="#fff" d="M62.75 50.667c.417-.5.583-1.083.417-1.583-.167-.584-.75-.917-1.334-1h-.166L55.333 45.5l21.834-28.25c.5-.5.583-1.166.333-1.666-.25-.584-.833-.917-1.5-.917H65.417c-5.417 0-5.417 0-8.75 4.917L39.583 47.25c-.333.5-.333 1-.166 1.5.25.5.75.834 1.333.917l.167.083 8.166 3.917-.333.5-20.667 31.5c-.25.333-.25.833.084 1.083.333.25.916.25 1.25 0L62.75 50.667zm-18.25-6 .417-.667c.166-.166.416-.25.583-.083.167.167.25.417.083.583l-.416.667c-.084.083-.25.167-.334.167-.083 0-.166 0-.25-.084-.166-.083-.25-.416-.083-.583zm16.667-25.5c.166-.167.416-.25.583-.083.167.166.25.416.083.583L47 42.334c-.083.083-.25.166-.333.166-.084 0-.167 0-.25-.083-.167-.167-.25-.417-.084-.583l14.834-22.667z"/><path fill="#076B8C" d="m49.583 66.834.834-.917 12.666-13.75.584-.667.166-.166a2.61 2.61 0 0 0 .5-2.667c-.166-.417-.333-.75-.666-1-.417-.417-1-.667-1.584-.833H62L57.333 45l7.75-10 13.084-16.916c.75-.834 1-2 .5-3s-1.5-1.667-2.667-1.667H65.417c-6 0-6.167.083-9.834 5.5l-8.583 14-8.417 13.667c-.083.083-.083.166-.166.25-.167.25-.25.583-.334.833-.083.583 0 1.083.25 1.667.417.833 1.25 1.416 2.167 1.583l1 .5 1.75.833 4 1.917-5.417 8.25L27.083 85c-.666.834-.5 2.084.334 2.75.416.334.833.5 1.416.5.584 0 1.084-.166 1.5-.583L42.917 74l.75-.833 5.916-6.333zm-21.333 20a.712.712 0 0 1-.083-1.084L48.75 54.167l.417-.583L41 49.667l-.167-.083c-.583-.084-1.083-.417-1.333-.917s-.167-1 .167-1.5l17-27.583C60 14.667 60 14.667 65.417 14.667H76c.667 0 1.25.333 1.5.917.25.583.167 1.166-.333 1.666L55.333 45.5l6.334 2.584h.166c.584.083 1.084.5 1.334 1 .166.5.083 1.166-.417 1.583L29.417 86.75c-.25.334-.834.334-1.167.084z"/><path fill="#076B8C" d="M44.583 45.25c.083.084.167.084.25.084.167 0 .25-.084.334-.167l.416-.667c.167-.166.084-.416-.083-.583-.167-.167-.417-.083-.584.083l-.416.667c-.167.167-.084.5.083.583zm1.834-2.75c.083.084.166.084.25.084.166 0 .25-.083.333-.167l14.833-22.75c.167-.166.084-.416-.083-.583a.513.513 0 0 0-.583.083l-14.834 22.75c-.166.167-.083.417.084.584z"/></svg>